# xmcd CD database file
#
# Track frame offsets:
#	187
#	6162
#	25984
#	53359
#	71144
#	75849
#	91129
#	103372
#	124654
#	144762
#	160034
#
# Disc length: 2317 seconds
#
# Revision: 1
# Processed by: cddbd v1.5PL3 Copyright (c) Steve Scherf et al.
# Submitted via: CDex 1.51
#
DISCID=7b090b0b
DTITLE=Jeff Watson - Lone Ranger
DYEAR=1992
DGENRE=Instrumental Rock
TTITLE0=Mountain Cathedral
TTITLE1=Cement Shoes
TTITLE2=Forest Of Feeling
TTITLE3=Hi-Yo Silver
TTITLE4=Picnic Island
TTITLE5=Morris Minor
TTITLE6=Osaka Rocka
TTITLE7=Eco Chalet
TTITLE8=Talking Hands
TTITLE9=Pipe Dream
TTITLE10=Song For Rebecca
EXTD=YEAR: 1992
EXTT0=
EXTT1=
EXTT2=
EXTT3=
EXTT4=
EXTT5=
EXTT6=
EXTT7=
EXTT8=
EXTT9=
EXTT10=
PLAYORDER=
